<svg xmlns="http://www.w3.org/2000/svg" viewBox="0 0 64 64">
  <g id="brain">
    <path d="M 43 36 L 48 36 L 48 34 L 43 34 L 43 32 L 51 32 C 57.074 31.996 61.996 27.074 62 21 C 61.997 17.498 59.41 14.535 55.94 14.06 C 55.465 10.59 52.502 8.003 49 8 C 47.749 7.993 46.509 8.245 45.36 8.74 C 42.238 4.489 37.274 1.985 32 2 C 27.33 2 22.87 4.46 19.65 8.77 C 18.167 8.206 16.586 7.944 15 8 C 12.59 8 7.99 10.53 7.12 14.22 C 3.9 15.34 2 18.57 2 23 C 2 28.3 5.29 32 10 32 L 21 32 L 21 34 L 16 34 L 16 36 L 21 36 L 21 38 L 2 38 L 2 40 L 21 40 L 21 42 L 13 42 C 11.345 42.005 10.005 43.345 10 45 L 10 49 C 10 49.552 9.552 50 9 50 L 6 50 L 6 52 L 9 52 C 10.655 51.995 11.995 50.655 12 49 L 12 45 C 12 44.448 12.448 44 13 44 L 21 44 L 21 46 L 18 46 C 16.345 46.005 15.005 47.345 15 49 L 15 59 C 15 59.552 14.552 60 14 60 L 6 60 L 6 62 L 14 62 C 15.655 61.995 16.995 60.655 17 59 L 17 49 C 17 48.448 17.448 48 18 48 L 21 48 L 21 49 C 21 49.552 21.448 50 22 50 L 23 50 L 23 56 C 23 56.552 22.552 57 22 57 L 19 57 L 19 59 L 22 59 C 23.655 58.995 24.995 57.655 25 56 L 25 50 L 27 50 L 27 62 L 29 62 L 29 50 L 31 50 L 31 56 L 33 56 L 33 50 L 35 50 L 35 59 C 35.005 60.655 36.345 61.995 38 62 L 45 62 L 45 60 L 38 60 C 37.448 60 37 59.552 37 59 L 37 50 L 39 50 L 39 51 C 39.005 52.655 40.345 53.995 42 54 L 45 54 L 45 52 L 42 52 C 41.448 52 41 51.552 41 51 L 41 50 L 42 50 C 42.552 50 43 49.552 43 49 L 43 48 L 46 48 C 46.552 48 47 48.448 47 49 L 47 59 C 47.005 60.655 48.345 61.995 50 62 L 58 62 L 58 60 L 50 60 C 49.448 60 49 59.552 49 59 L 49 49 C 48.995 47.345 47.655 46.005 46 46 L 43 46 L 43 44 L 51 44 C 51.552 44 52 44.448 52 45 L 52 49 C 52.005 50.655 53.345 51.995 55 52 L 58 52 L 58 50 L 55 50 C 54.448 50 54 49.552 54 49 L 54 45 C 53.995 43.345 52.655 42.005 51 42 L 43 42 L 43 40 L 62 40 L 62 38 L 43 38 L 43 36 Z M 41 48 L 23 48 L 23 30 L 33.688 30 L 41 30 L 41 48 Z M 42 28 L 41 28 L 41 25 C 41 24.448 41.448 24 42 24 L 48 24 L 48 22 L 42 22 C 40.345 22.005 39.005 23.345 39 25 L 39 28 L 37 28 L 37 22 L 35 22 L 35 28 L 33 28 L 33 10 L 31 10 L 31 28 L 29 28 L 29 22 L 27 22 L 27 28 L 25 28 L 25 27 C 24.995 25.345 23.655 24.005 22 24 L 10 24 L 10 26 L 22 26 C 22.552 26 23 26.448 23 27 L 23 28 L 22 28 C 21.448 28 21 28.448 21 29 L 21 30 L 10 30 C 5.86 30 4 26.48 4 23 C 4 19.26 5.59 16.64 8.24 15.97 C 8.415 15.925 8.575 15.831 8.7 15.7 L 8.71 15.71 C 9.509 14.987 10.605 14.689 11.66 14.91 C 12.669 15.022 13.572 15.589 14.11 16.45 C 14.962 18.168 14.265 20.252 12.55 21.11 L 13.45 22.89 C 16.142 21.529 17.231 18.251 15.89 15.55 C 15.078 14.105 13.625 13.135 11.98 12.94 C 11.308 12.823 10.621 12.827 9.95 12.95 C 11.211 11.377 13.01 10.326 15 10 C 16.486 9.928 17.968 10.202 19.33 10.8 L 19.62 10.93 C 19.994 11.077 20.419 10.986 20.7 10.7 L 20.71 10.71 C 21.509 9.987 22.605 9.689 23.66 9.91 C 24.669 10.022 25.572 10.589 26.11 11.45 C 26.962 13.168 26.265 15.252 24.55 16.11 L 25.45 17.89 C 28.142 16.529 29.231 13.251 27.89 10.55 C 27.078 9.105 25.625 8.135 23.98 7.94 C 23.686 7.892 23.388 7.868 23.09 7.87 C 25.426 5.445 28.633 4.052 32 4 C 35.666 4.024 39.194 5.398 41.91 7.86 C 41.612 7.867 41.315 7.894 41.02 7.94 C 39.375 8.135 37.922 9.105 37.11 10.55 C 35.769 13.251 36.858 16.529 39.55 17.89 L 40.45 16.11 C 38.735 15.252 38.038 13.168 38.89 11.45 C 39.428 10.589 40.331 10.022 41.34 9.91 C 42.395 9.689 43.491 9.987 44.29 10.71 L 44.3 10.7 C 44.596 11 45.049 11.081 45.43 10.9 C 46.528 10.312 47.754 10.002 49 10 C 51.761 10 54 12.239 54 15 C 54 15.02 54.01 15.04 54.01 15.06 L 54 15.06 C 54.238 17.125 52.152 18.673 50.245 17.847 C 49.645 17.587 49.161 17.119 48.88 16.53 L 47.12 17.47 C 47.948 19.044 49.572 20.038 51.35 20.06 C 51.632 20.063 51.914 20.036 52.19 19.98 C 54.121 19.585 55.606 18.036 55.92 16.09 C 58.282 16.536 59.994 18.597 60 21 C 59.992 25.967 55.967 29.992 51 30 L 43 30 L 43 29 C 43 28.448 42.552 28 42 28 L 42 28 Z"></path>
    <path d="m50 22h2v2h-2z"></path>
    <path d="m6 24h2v2h-2z"></path>
    <path d="m31 6h2v2h-2z"></path>
    <path d="m27 18h2v2h-2z"></path>
    <path d="m35 18h2v2h-2z"></path>
    <path d="m60 60h2v2h-2z"></path>
    <path d="m60 50h2v2h-2z"></path>
    <path d="m50 34h2v2h-2z"></path>
    <path d="m2 60h2v2h-2z"></path>
    <path d="m2 50h2v2h-2z"></path>
    <path d="m12 34h2v2h-2z"></path>
    <path d="m35 37.816v8.184h2v-8.184a2.993 2.993 0 1 0 -3.816-3.816h-4.184v2h4.184a3 3 0 0 0 1.816 1.816zm1-3.816a1 1 0 1 1 -1 1 1 1 0 0 1 1-1z"></path>
    <path d="m25 34h2v2h-2z"></path>
    <path d="m31 58h2v2h-2z"></path>
  </g>
</svg>