<svg xmlns="http://www.w3.org/2000/svg" viewBox="0 0 64 64">
  <g id="device">
    <path d="M61.65,14.37a1,1,0,0,0-.77-.37H60V3a1,1,0,0,0-1-1H39a1,1,0,0,0-1,1V14h-.88a1,1,0,0,0-.77.37.989.989,0,0,0-.2.84l.87,4A1,1,0,0,0,38,20H60a1,1,0,0,0,.98-.79l.87-4A.989.989,0,0,0,61.65,14.37ZM40,4H58V14H51a1,1,0,0,0-1,1H48a1,1,0,0,0-1-1H40ZM59.2,18H38.8l-.43-2H46a1,1,0,0,0,1,1h4a1,1,0,0,0,1-1h7.63Z"></path>
    <path d="M21,42H5a3.009,3.009,0,0,0-3,3V55a3.009,3.009,0,0,0,3,3H8.79l-.67,2.76a.982.982,0,0,0,.18.86,1,1,0,0,0,.79.38h7.82a1,1,0,0,0,.79-.38.982.982,0,0,0,.18-.86L17.21,58H21a3.009,3.009,0,0,0,3-3V45A3.009,3.009,0,0,0,21,42ZM10.36,60l.49-2h4.3l.49,2ZM22,55a1,1,0,0,1-1,1H5a1,1,0,0,1-1-1V54H22Zm0-3H4V45a1,1,0,0,1,1-1H21a1,1,0,0,1,1,1Z"></path>
    <path d="M59,40H51a3.009,3.009,0,0,0-3,3V59a3.009,3.009,0,0,0,3,3h8a3.009,3.009,0,0,0,3-3V43A3.009,3.009,0,0,0,59,40Zm-2,2a1,1,0,0,1-1,1H54a1,1,0,0,1-1-1Zm3,17a1,1,0,0,1-1,1H51a1,1,0,0,1-1-1V43a1,1,0,0,1,1-1,3.009,3.009,0,0,0,3,3h2a3.009,3.009,0,0,0,3-3,1,1,0,0,1,1,1Z"></path>
    <path d="M17,2H5A3.009,3.009,0,0,0,2,5V21a3.009,3.009,0,0,0,3,3H17a3.009,3.009,0,0,0,3-3V5A3.009,3.009,0,0,0,17,2Zm1,19a1,1,0,0,1-1,1H5a1,1,0,0,1-1-1V5A1,1,0,0,1,5,4H17a1,1,0,0,1,1,1Z"></path>
    <rect x="10" y="18" width="2" height="2"></rect>
    <path d="M42.12,29.1l-2.4-.3,1.49-1.91a.994.994,0,0,0-.09-1.32l-2.69-2.69a1,1,0,0,0-1.32-.09L35.2,24.28l-.3-2.4a1.013,1.013,0,0,0-1-.88H30.1a1.013,1.013,0,0,0-1,.88l-.3,2.4-1.91-1.49a1,1,0,0,0-1.32.09l-2.69,2.69a.994.994,0,0,0-.09,1.32l1.49,1.91-2.4.3a1.013,1.013,0,0,0-.88,1v3.8a1.013,1.013,0,0,0,.88,1l2.4.3-1.49,1.91a.994.994,0,0,0,.09,1.32l2.69,2.69a1,1,0,0,0,1.32.09l1.91-1.49.3,2.4a1.013,1.013,0,0,0,1,.88h3.8a1.013,1.013,0,0,0,1-.88l.3-2.4,1.91,1.49a1,1,0,0,0,1.32-.09l2.69-2.69a.994.994,0,0,0,.09-1.32L39.72,35.2l2.4-.3a1.013,1.013,0,0,0,.88-1V30.1A1.013,1.013,0,0,0,42.12,29.1ZM41,33.02l-2.37.3a.984.984,0,0,0-.82.67c-.09.24-.19.48-.3.71a.979.979,0,0,0,.11,1.05l1.47,1.89-1.45,1.45-1.89-1.47a.979.979,0,0,0-1.05-.11,7.758,7.758,0,0,1-.72.3.989.989,0,0,0-.66.82L33.02,41H30.98l-.3-2.37a.989.989,0,0,0-.66-.82,7.758,7.758,0,0,1-.72-.3.979.979,0,0,0-1.05.11l-1.89,1.47-1.45-1.45,1.47-1.89a.979.979,0,0,0,.11-1.05c-.11-.23-.21-.47-.3-.71a.984.984,0,0,0-.82-.67L23,33.02V30.98l2.37-.3a.984.984,0,0,0,.82-.67c.09-.24.19-.48.3-.71a.979.979,0,0,0-.11-1.05l-1.47-1.89,1.45-1.45,1.89,1.47a.979.979,0,0,0,1.05.11c.23-.11.47-.21.71-.3a.984.984,0,0,0,.67-.82l.3-2.37h2.04l.3,2.37a.984.984,0,0,0,.67.82c.24.09.48.19.71.3a.979.979,0,0,0,1.05-.11l1.89-1.47,1.45,1.45-1.47,1.89a.979.979,0,0,0-.11,1.05c.11.23.21.47.3.71a.984.984,0,0,0,.82.67l2.37.3Z"></path>
    <path d="M37,32a5,5,0,1,0-5,5A5.006,5.006,0,0,0,37,32Zm-5,3a3,3,0,1,1,3-3A3,3,0,0,1,32,35Z"></path>
    <path d="M45,30v2h4a1,1,0,0,0,1-1V22H48v8Z"></path>
    <path d="M11,32v8h2V33h6V31H12A1,1,0,0,0,11,32Z"></path>
    <path d="M31,19h2V13a1,1,0,0,0-1-1H22v2h9Z"></path>
    <path d="M33,45H31v8a1,1,0,0,0,1,1H46V52H33Z"></path>
  </g>
</svg>