<svg xmlns="http://www.w3.org/2000/svg" viewBox="0 0 496 496">
  <path d="m488 48c4.417969 0 8-3.582031 8-8v-32c0-4.417969-3.582031-8-8-8h-32c-4.417969 0-8 3.582031-8 8v8h-176v-8c0-4.417969-3.582031-8-8-8h-32c-4.417969 0-8 3.582031-8 8v8h-176v-8c0-4.417969-3.582031-8-8-8h-32c-4.417969 0-8 3.582031-8 8v32c0 4.417969 3.582031 8 8 8h8v176h-8c-4.417969 0-8 3.582031-8 8v32c0 4.417969 3.582031 8 8 8h8v176h-8c-4.417969 0-8 3.582031-8 8v32c0 4.417969 3.582031 8 8 8h32c4.417969 0 8-3.582031 8-8v-8h176v8c0 4.417969 3.582031 8 8 8h32c4.417969 0 8-3.582031 8-8v-8h176v8c0 4.417969 3.582031 8 8 8h32c4.417969 0 8-3.582031 8-8v-32c0-4.417969-3.582031-8-8-8h-8v-176h8c4.417969 0 8-3.582031 8-8v-32c0-4.417969-3.582031-8-8-8h-8v-176zm-24-32h16v16h-16zm-224 0h16v16h-16zm-224 0h16v16h-16zm0 224h16v16h-16zm16 240h-16v-16h16zm224 0h-16v-16h16zm224 0h-16v-16h16zm0-224h-16v-16h16zm-16-32h-8c-4.417969 0-8 3.582031-8 8v32c0 4.417969 3.582031 8 8 8h8v176h-8c-4.417969 0-8 3.582031-8 8v8h-176v-8c0-4.417969-3.582031-8-8-8h-32c-4.417969 0-8 3.582031-8 8v8h-176v-8c0-4.417969-3.582031-8-8-8h-8v-176h8c4.417969 0 8-3.582031 8-8v-32c0-4.417969-3.582031-8-8-8h-8v-176h8c4.417969 0 8-3.582031 8-8v-8h176v8c0 4.417969 3.582031 8 8 8h32c4.417969 0 8-3.582031 8-8v-8h176v8c0 4.417969 3.582031 8 8 8h8zm0 0"></path>
  <path d="m411.921875 269.695312c.636719-3.542968-1.175781-7.078124-4.425781-8.632812l-260.207032-124.445312c-3.0625-1.46875-6.714843-.84375-9.117187 1.554687-2.398437 2.402344-3.023437 6.054687-1.554687 9.117187l124.445312 260.214844c1.328125 2.773438 4.128906 4.539063 7.203125 4.542969.472656 0 .949219-.039063 1.414063-.125 3.542968-.636719 6.222656-3.5625 6.550781-7.144531l10.730469-117.816406 117.839843-10.703126c3.578125-.339843 6.488281-3.023437 7.121094-6.5625zm-133.050781 1.9375c-3.84375.351563-6.886719 3.394532-7.238282 7.238282l-8.6875 95.480468-102.144531-213.550781 213.519531 102.121094zm0 0"></path>
  <path d="m408 424h-56c-4.417969 0-8 3.582031-8 8s3.582031 8 8 8h56c4.417969 0 8-3.582031 8-8s-3.582031-8-8-8zm0 0"></path>
  <path d="m440 424h-8c-4.417969 0-8 3.582031-8 8s3.582031 8 8 8h8c4.417969 0 8-3.582031 8-8s-3.582031-8-8-8zm0 0"></path>
</svg>