<svg width="380" height="124" viewBox="0 0 380 124" fill="none" xmlns="http://www.w3.org/2000/svg">
<path fill-rule="evenodd" clip-rule="evenodd" d="M62.3945 112C90.0088 112 112.395 89.6142 112.395 62C112.395 34.3858 90.0088 12 62.3945 12C34.7803 12 12.3945 34.3858 12.3945 62C12.3945 89.6142 34.7803 112 62.3945 112ZM62.3947 28C65.4005 28 68.2832 29.1941 70.4086 31.3195C72.5341 33.4449 73.7281 36.3277 73.7281 39.3335V50.667L51.0615 50.667L51.0615 39.3335C51.0615 36.3277 52.2555 33.4451 54.3809 31.3196C56.5063 29.1942 59.3889 28.0001 62.3947 28ZM51.0615 50.667V62.0005C51.0615 65.0063 49.8674 67.889 47.742 70.0145C45.6166 72.1399 42.7338 73.334 39.728 73.334C36.7222 73.334 33.8395 72.1399 31.714 70.0145C29.5886 67.889 28.3945 65.0063 28.3945 62.0005C28.3945 58.9947 29.5886 56.1119 31.714 53.9865C33.8395 51.861 36.7222 50.667 39.728 50.667H51.0615ZM73.7278 73.334L73.7281 50.667L96.3955 50.667C96.3955 63.1856 86.2464 73.334 73.7278 73.334ZM73.7278 73.334V84.6675C73.7277 86.9089 73.063 89.1 71.8177 90.9637C70.5723 92.8274 68.8023 94.2799 66.7315 95.1376C64.6607 95.9954 62.382 96.2198 60.1836 95.7825C57.9852 95.3452 55.9659 94.2658 54.3809 92.6809C52.796 91.0959 51.7166 89.0766 51.2793 86.8782C50.842 84.6798 51.0664 82.4011 51.9241 80.3303C52.7819 78.2594 54.2344 76.4894 56.0981 75.2441C57.9618 73.9988 60.1529 73.3341 62.3943 73.334H73.7278Z" fill="white"/>
<path d="M304.693 89.1244C308.574 91.1569 313.07 92.1732 318.182 92.1732C323.479 92.1732 328.067 91.1569 331.947 89.1244C335.889 87.0304 338.907 84.1048 341.001 80.3478C343.157 76.5907 344.235 72.2178 344.235 67.229V31.8271H333.518V67.229C333.518 70.2469 332.902 72.8953 331.67 75.1742C330.438 77.3914 328.652 79.1468 326.312 80.4402C324.033 81.672 321.384 82.2879 318.367 82.2879C315.41 82.2879 312.793 81.672 310.514 80.4402C308.235 79.1468 306.449 77.3914 305.155 75.1742C303.924 72.8953 303.308 70.2469 303.308 67.229V31.8271H292.591V67.229C292.591 72.2178 293.638 76.5907 295.732 80.3478C297.888 84.1048 300.875 87.0304 304.693 89.1244Z" fill="white"/>
<path d="M356.654 31.8271V90.8798H367.371V31.8271H356.654Z" fill="white"/>
<path fill-rule="evenodd" clip-rule="evenodd" d="M184.038 90.9716L177.79 75.0812H154.007L147.758 90.9716H136.395L160.17 31.9189H171.534L195.402 90.9716H184.038ZM165.898 44.8407L174.048 65.5654H157.749L165.898 44.8407Z" fill="white"/>
<path d="M217.703 92.0802C214.624 92.0802 211.791 91.6183 209.204 90.6944C206.617 89.7706 204.4 88.4772 202.552 86.8142C200.704 85.0897 199.288 83.088 198.302 80.8091L207.264 76.8365C208.188 78.5611 209.543 80.0084 211.329 81.1787C213.176 82.3489 215.209 82.934 217.426 82.934C219.828 82.934 221.737 82.5336 223.154 81.733C224.632 80.8707 225.371 79.7005 225.371 78.2223C225.371 76.8057 224.817 75.7279 223.708 74.9888C222.6 74.1881 221.029 73.5414 218.997 73.0487L214.655 71.8477C210.282 70.739 206.863 68.9837 204.4 66.5817C201.936 64.118 200.704 61.3157 200.704 58.1745C200.704 53.5552 202.182 49.983 205.139 47.4578C208.157 44.9325 212.468 43.6699 218.073 43.6699C220.906 43.6699 223.493 44.1011 225.833 44.9633C228.235 45.764 230.299 46.9342 232.023 48.474C233.748 49.9522 234.949 51.7075 235.626 53.74L227.034 57.6202C226.418 56.0805 225.248 54.9102 223.524 54.1096C221.799 53.2473 219.89 52.8161 217.796 52.8161C215.702 52.8161 214.069 53.2781 212.899 54.2019C211.729 55.0642 211.144 56.296 211.144 57.8974C211.144 58.8212 211.667 59.6835 212.714 60.4842C213.761 61.2233 215.27 61.8392 217.241 62.3319L222.692 63.6253C225.71 64.3644 228.174 65.5346 230.083 67.136C231.992 68.6757 233.409 70.4311 234.333 72.402C235.257 74.3113 235.719 76.2514 235.719 78.2223C235.719 80.9939 234.918 83.4267 233.317 85.5208C231.777 87.6149 229.652 89.247 226.942 90.4173C224.232 91.5259 221.152 92.0802 217.703 92.0802Z" fill="white"/>
<path d="M255.272 77.529V90.9716H244.924V31.9189H255.272V63.583L272.548 44.7786H285.02L267.641 63.9118L286.59 90.9716H274.303L260.933 71.2962L255.272 77.529Z" fill="white"/>
</svg>
