<svg width="380" height="124" viewBox="0 0 380 124" fill="none" xmlns="http://www.w3.org/2000/svg">
<rect x="12.2061" y="12" width="100.001" height="100" rx="50.0001" fill="#963CBD"/>
<path d="M39.5395 50.667H50.873V62.0005C50.873 65.0063 49.679 67.889 47.5535 70.0145C45.4281 72.1399 42.5454 73.334 39.5395 73.334C36.5337 73.334 33.651 72.1399 31.5256 70.0145C29.4001 67.889 28.2061 65.0063 28.2061 62.0005C28.2061 58.9947 29.4001 56.1119 31.5256 53.9865C33.651 51.8611 36.5337 50.667 39.5395 50.667Z" fill="white"/>
<path d="M62.2058 73.334C59.9644 73.3341 57.7733 73.9988 55.9096 75.2441C54.0459 76.4894 52.5934 78.2594 51.7357 80.3303C50.8779 82.4011 50.6535 84.6798 51.0908 86.8782C51.5281 89.0766 52.6075 91.0959 54.1924 92.6809C55.7774 94.2658 57.7967 95.3452 59.9951 95.7825C62.1935 96.2198 64.4722 95.9954 66.543 95.1376C68.6139 94.2799 70.3839 92.8274 71.6292 90.9637C72.8745 89.1 73.5392 86.9089 73.5393 84.6675V73.334H62.2058Z" fill="white"/>
<path d="M62.2062 28C65.212 28 68.0947 29.1941 70.2202 31.3195C72.3456 33.4449 73.5397 36.3277 73.5397 39.3335V50.667L50.873 50.667L50.873 39.3335C50.873 36.3277 52.0671 33.4451 54.1924 31.3196C56.3178 29.1942 59.2004 28.0001 62.2062 28Z" fill="white"/>
<path d="M73.5397 50.667L96.207 50.667C96.207 63.1856 86.0579 73.334 73.5393 73.334L73.5397 50.667Z" fill="white"/>
<path d="M304.506 89.1244C308.386 91.1569 312.882 92.1732 317.994 92.1732C323.291 92.1732 327.88 91.1569 331.76 89.1244C335.702 87.0304 338.72 84.1048 340.814 80.3478C342.969 76.5907 344.047 72.2178 344.047 67.229V31.8271H333.33V67.229C333.33 70.2469 332.714 72.8953 331.483 75.1742C330.251 77.3914 328.465 79.1468 326.124 80.4402C323.845 81.672 321.197 82.2879 318.179 82.2879C315.223 82.2879 312.605 81.672 310.326 80.4402C308.047 79.1468 306.261 77.3914 304.968 75.1742C303.736 72.8953 303.12 70.2469 303.12 67.229V31.8271H292.403V67.229C292.403 72.2178 293.45 76.5907 295.544 80.3478C297.7 84.1048 300.687 87.0304 304.506 89.1244Z" fill="#403A60"/>
<path d="M356.467 31.8271V90.8798H367.183V31.8271H356.467Z" fill="#403A60"/>
<path fill-rule="evenodd" clip-rule="evenodd" d="M183.851 90.9716L177.602 75.0812H153.819L147.571 90.9716H136.207L159.983 31.9189H171.346L195.214 90.9716H183.851ZM165.711 44.8407L173.86 65.5654H157.561L165.711 44.8407Z" fill="#403A60"/>
<path d="M217.516 92.0802C214.436 92.0802 211.603 91.6183 209.016 90.6944C206.429 89.7706 204.212 88.4772 202.364 86.8142C200.517 85.0897 199.1 83.088 198.115 80.8091L207.076 76.8365C208 78.5611 209.355 80.0084 211.141 81.1787C212.989 82.3489 215.021 82.934 217.239 82.934C219.641 82.934 221.55 82.5336 222.967 81.733C224.445 80.8707 225.184 79.7005 225.184 78.2223C225.184 76.8057 224.63 75.7279 223.521 74.9888C222.412 74.1881 220.842 73.5414 218.809 73.0487L214.467 71.8477C210.094 70.739 206.676 68.9837 204.212 66.5817C201.749 64.118 200.517 61.3157 200.517 58.1745C200.517 53.5552 201.995 49.983 204.951 47.4578C207.969 44.9325 212.281 43.6699 217.885 43.6699C220.718 43.6699 223.305 44.1011 225.646 44.9633C228.048 45.764 230.111 46.9342 231.836 48.474C233.56 49.9522 234.761 51.7075 235.439 53.74L226.847 57.6202C226.231 56.0805 225.061 54.9102 223.336 54.1096C221.612 53.2473 219.702 52.8161 217.608 52.8161C215.514 52.8161 213.882 53.2781 212.712 54.2019C211.541 55.0642 210.956 56.296 210.956 57.8974C210.956 58.8212 211.48 59.6835 212.527 60.4842C213.574 61.2233 215.083 61.8392 217.054 62.3319L222.505 63.6253C225.523 64.3644 227.986 65.5346 229.896 67.136C231.805 68.6757 233.221 70.4311 234.145 72.402C235.069 74.3113 235.531 76.2514 235.531 78.2223C235.531 80.9939 234.73 83.4267 233.129 85.5208C231.589 87.6149 229.464 89.247 226.754 90.4173C224.044 91.5259 220.965 92.0802 217.516 92.0802Z" fill="#403A60"/>
<path d="M255.084 77.529V90.9716H244.737V31.9189H255.084V63.583L272.36 44.7786H284.832L267.453 63.9118L286.403 90.9716H274.116L260.745 71.2962L255.084 77.529Z" fill="#403A60"/>
</svg>
