<svg id="Layer_1" data-name="Layer 1" xmlns="http://www.w3.org/2000/svg" viewBox="0 0 1482 792">
  <defs>
    <style>.cls-1{fill:#963cbd;}.cls-2{fill:#403a60;}.cls-3{fill:#307fe2;}.cls-4{fill:#26d07c;}.cls-5{fill:#f8485e;}</style>
  </defs>
  <title>askui_logo-horizontal_positive_rgb</title>
  <path class="cls-1" d="M1160.6,408.6V324h33v83c0,36.9-16.9,64.3-63.6,64.3s-63.5-27.4-63.5-64.3V324h33v84.6c0,22.5,10.6,33.6,30.5,33.6S1160.6,431.1,1160.6,408.6Z" />
  <path class="cls-1" d="M1233,324h33V468h-33Z" />
  <path class="cls-2" d="M755.7,421.9h31.9c.8,12.5,10.8,22.2,31.1,22.2,17.2,0,26.6-6.3,26.6-16.3,0-30.6-82.7-3.4-82.7-61.9,0-24.1,21.7-45.2,57.2-45.2,41.3,0,55.2,28.3,56.6,47.7H844.8c-1.2-10.3-8.9-20.8-25.8-20.8s-24.7,6.6-24.7,17.2c0,28,82.6,3.3,82.6,61.6,0,24.4-19.9,44.9-60.2,44.9C774.6,471.3,757.4,448.3,755.7,421.9Z" />
  <path class="cls-2" d="M1045.1,324l-55.7,60.8,59.9,83.2h-39.4l-42.4-61.6-25.3,27.2V468h-33V270h33V394.2l61.3-70.2Z" />
  <path class="cls-2" d="M660.9,320.7c-43.6,0-60.8,23.3-63.5,48.5h32.2c2.2-13.3,12.4-21.3,30.5-21.3,19.7,0,30.8,8.8,30.8,26.3v2.2l-41.7,5.9c-38,5.2-55.2,21.1-55.2,45.5s14.7,43.5,50.5,43.5c22.6,0,39-7.2,48.8-21.3v18h29.8V374.5C723.1,341.5,703.1,320.7,660.9,320.7Zm30,88.8c0,19.4-13.1,36-39.7,36-15.8,0-25.5-5.2-25.5-18.8,0-10,6.6-17.5,26.9-20.6l38.3-5.8Z" />
  <path class="cls-3" d="M270,324h54a0,0,0,0,1,0,0v54a54,54,0,0,1-54,54h0a54,54,0,0,1-54-54v0A54,54,0,0,1,270,324Z" />
  <path class="cls-1" d="M432,324H540a0,0,0,0,1,0,0v36A108,108,0,0,1,432,468h0a0,0,0,0,1,0,0V324A0,0,0,0,1,432,324Z" />
  <path class="cls-4" d="M378,468a54,54,0,1,0,54,54V468Z" />
  <path class="cls-5" d="M378,216h0a54,54,0,0,1,54,54v54a0,0,0,0,1,0,0H324a0,0,0,0,1,0,0V270A54,54,0,0,1,378,216Z" />
</svg>