<?xml version="1.0" encoding="UTF-8" standalone="no"?>
<svg
   id="Layer_1"
   data-name="Layer 1"
   viewBox="0 200 1482 385"
   version="1.1"
   sodipodi:docname="askui_logo-horizontal_positive_rgb_thin.svg"
   width="1482"
   height="385"
   inkscape:version="1.1.2 (08b2f3d93c, 2022-04-05)"
   xmlns:inkscape="http://www.inkscape.org/namespaces/inkscape"
   xmlns:sodipodi="http://sodipodi.sourceforge.net/DTD/sodipodi-0.dtd"
   xmlns="http://www.w3.org/2000/svg"
   xmlns:svg="http://www.w3.org/2000/svg"
   xmlns:rdf="http://www.w3.org/1999/02/22-rdf-syntax-ns#"
   xmlns:cc="http://creativecommons.org/ns#"
   xmlns:dc="http://purl.org/dc/elements/1.1/">
  <sodipodi:namedview
     id="namedview27"
     pagecolor="#ffffff"
     bordercolor="#666666"
     borderopacity="1.0"
     inkscape:pageshadow="2"
     inkscape:pageopacity="0.0"
     inkscape:pagecheckerboard="0"
     showgrid="false"
     height="895px"
     viewbox-y="200"
     inkscape:zoom="0.93994602"
     inkscape:cx="741"
     inkscape:cy="396.29935"
     inkscape:window-width="2560"
     inkscape:window-height="1376"
     inkscape:window-x="0"
     inkscape:window-y="27"
     inkscape:window-maximized="1"
     inkscape:current-layer="Layer_1" />
  <defs
     id="defs4">
    <style
       id="style2">.cls-1{fill:#963cbd;}.cls-2{fill:#403a60;}.cls-3{fill:#307fe2;}.cls-4{fill:#26d07c;}.cls-5{fill:#f8485e;}</style>
  </defs>
  <title
     id="title6">askui_logo-horizontal_positive_rgb</title>
  <path
     class="cls-1"
     d="M 1160.6,408.6 V 324 h 33 v 83 c 0,36.9 -16.9,64.3 -63.6,64.3 -46.7,0 -63.5,-27.4 -63.5,-64.3 v -83 h 33 v 84.6 c 0,22.5 10.6,33.6 30.5,33.6 19.9,0 30.6,-11.1 30.6,-33.6 z"
     id="path8" />
  <path
     class="cls-1"
     d="m 1233,324 h 33 v 144 h -33 z"
     id="path10" />
  <path
     class="cls-2"
     d="m 755.7,421.9 h 31.9 c 0.8,12.5 10.8,22.2 31.1,22.2 17.2,0 26.6,-6.3 26.6,-16.3 0,-30.6 -82.7,-3.4 -82.7,-61.9 0,-24.1 21.7,-45.2 57.2,-45.2 41.3,0 55.2,28.3 56.6,47.7 h -31.6 c -1.2,-10.3 -8.9,-20.8 -25.8,-20.8 -16.9,0 -24.7,6.6 -24.7,17.2 0,28 82.6,3.3 82.6,61.6 0,24.4 -19.9,44.9 -60.2,44.9 -42.1,0 -59.3,-23 -61,-49.4 z"
     id="path12" />
  <path
     class="cls-2"
     d="m 1045.1,324 -55.7,60.8 59.9,83.2 h -39.4 l -42.4,-61.6 -25.3,27.2 V 468 h -33 V 270 h 33 v 124.2 l 61.3,-70.2 z"
     id="path14" />
  <path
     class="cls-2"
     d="m 660.9,320.7 c -43.6,0 -60.8,23.3 -63.5,48.5 h 32.2 c 2.2,-13.3 12.4,-21.3 30.5,-21.3 19.7,0 30.8,8.8 30.8,26.3 v 2.2 l -41.7,5.9 c -38,5.2 -55.2,21.1 -55.2,45.5 0,24.4 14.7,43.5 50.5,43.5 22.6,0 39,-7.2 48.8,-21.3 v 18 h 29.8 v -93.5 c 0,-33 -20,-53.8 -62.2,-53.8 z m 30,88.8 c 0,19.4 -13.1,36 -39.7,36 -15.8,0 -25.5,-5.2 -25.5,-18.8 0,-10 6.6,-17.5 26.9,-20.6 l 38.3,-5.8 z"
     id="path16" />
  <path
     class="cls-3"
     d="m 270,324 h 54 v 54 a 54,54 0 0 1 -54,54 v 0 a 54,54 0 0 1 -54,-54 v 0 a 54,54 0 0 1 54,-54 z"
     id="path18" />
  <path
     class="cls-1"
     d="m 432,324 h 108 v 36 A 108,108 0 0 1 432,468 v 0 z"
     id="path20" />
  <path
     class="cls-4"
     d="m 378,468 a 54,54 0 1 0 54,54 v -54 z"
     id="path22" />
  <path
     class="cls-5"
     d="m 378,216 v 0 a 54,54 0 0 1 54,54 v 54 H 324 v -54 a 54,54 0 0 1 54,-54 z"
     id="path24" />
  <metadata
     id="metadata29">
    <rdf:RDF>
      <cc:Work
         rdf:about="">
        <dc:title>askui_logo-horizontal_positive_rgb</dc:title>
      </cc:Work>
    </rdf:RDF>
  </metadata>
</svg>
